<?xml version="1.0" encoding="utf-8"?>
<!-- Generator: Adobe Illustrator 22.1.0, SVG Export Plug-In . SVG Version: 6.00 Build 0)  -->
<svg version="1.1" id="Layer_1" xmlns="http://www.w3.org/2000/svg" xmlns:xlink="http://www.w3.org/1999/xlink" x="0px" y="0px"
	 viewBox="0 0 290 56.6" style="enable-background:new 0 0 290 56.6;" xml:space="preserve">
<style type="text/css">
	.st0{fill:#fff;}
	.st1{enable-background:new    ;}
</style>
<title>Home</title>
<g id="logo-maker_1_" transform="translate(65.000000, 63.000000)">
	<g>
		<g id="Path-3-Copy-4-_x2B_-Path-3-Copy-5-Copy_3_" transform="translate(0.492537, 0.000000)">
			<g id="Shape_6_">
				<path class="st0" d="M-28.2-6.4c-1.9,0-3.3-1.4-3.3-3.2v-25.3l-27.3-18.8v44.1c0,1.8-1.5,3.2-3.3,3.2s-3.3-1.4-3.3-3.2v-50.3
					c0-1.8,1.5-3.2,3.3-3.2c0.7,0,1.4,0.2,1.9,0.6l33.9,23.5c0.9,0.6,1.4,1.5,1.4,2.6v26.9C-24.9-7.8-26.4-6.4-28.2-6.4z"/>
			</g>
			<g id="Shape_5_">
				<path class="st0" d="M-14.3-6.4c-1.9,0-3.3-1.4-3.3-3.2v-26.8c0-1,0.6-2,1.4-2.6l33.9-23.4c0.6-0.4,1.2-0.6,1.9-0.6
					c1.6,0,3.3,1.2,3.3,3.2v50.3c0,1.8-1.5,3.2-3.3,3.2s-3.3-1.4-3.3-3.2v-44.1L-11-34.9v25.3C-11-7.8-12.5-6.4-14.3-6.4z"/>
			</g>
		</g>
	</g>
</g>
<g class="st1">
	<g>
		<g>
			<path class="st0" d="M150.7,45.4c-0.8,0-1.3-0.3-1.7-0.8c-0.2-0.4-0.4-0.9-0.4-1.7V21l-9.1,17.7c-0.3,0.6-0.6,1-1,1.3
				c-0.4,0.3-0.8,0.4-1.4,0.4c-0.6,0-1-0.1-1.4-0.4c-0.4-0.3-0.7-0.7-1-1.3L125.8,21v22c0,0.8-0.1,1.3-0.4,1.7
				c-0.3,0.5-0.9,0.8-1.7,0.8c-0.8,0-1.4-0.3-1.7-0.8c-0.2-0.4-0.4-0.9-0.4-1.7V14.5c0-0.8,0.2-1.4,0.7-1.8c0.4-0.4,0.9-0.6,1.4-0.6
				c0.5,0,1,0.1,1.3,0.3c0.4,0.2,0.7,0.6,1.1,1.2l11.2,21.9l11.2-21.9c0.3-0.7,0.7-1.1,1.1-1.2c0.3-0.2,0.7-0.3,1.3-0.3
				c0.5,0,1,0.2,1.5,0.6c0.4,0.4,0.6,1,0.6,1.8V43c0,0.8-0.1,1.3-0.4,1.7C152.1,45.2,151.5,45.4,150.7,45.4z"/>
		</g>
		<g>
			<path class="st0" d="M187.6,45.4c-0.3,0-0.7-0.1-1-0.3c-0.4-0.3-0.7-0.8-1-1.5l-2.3-5.8h-16l-2.4,5.8c-0.3,0.8-0.6,1.3-1,1.5
				c-0.3,0.2-0.7,0.3-1.1,0.3c-0.6,0-1.1-0.2-1.5-0.6c-0.3-0.2-0.4-0.5-0.5-0.8c-0.1-0.3-0.1-0.6,0-0.8c0.1-0.2,0.2-0.5,0.3-0.9
				L173,14c0.3-0.7,0.5-1.1,0.8-1.3c0.4-0.4,0.9-0.6,1.6-0.6c0.6,0,1.1,0.2,1.5,0.6c0.2,0.2,0.5,0.7,0.8,1.3l11.7,28.4
				c0.2,0.4,0.3,0.8,0.3,1.3c0,0.5-0.2,0.9-0.6,1.2C188.8,45.3,188.2,45.4,187.6,45.4z M182,34.6l-6.6-16.5l-6.7,16.5H182z"/>
		</g>
		<g>
			<path class="st0" d="M221.5,45.4c-0.3,0-0.6-0.1-0.9-0.3c-0.3-0.2-0.5-0.3-0.6-0.5c-0.1-0.2-0.3-0.4-0.5-0.7l-10.1-16.2l-7.5,8.1
				l0,7.1c0,0.8-0.1,1.3-0.4,1.7c-0.3,0.5-0.9,0.8-1.7,0.8c-0.8,0-1.4-0.3-1.7-0.8c-0.2-0.4-0.4-0.9-0.4-1.7V14.6c0-0.5,0-0.8,0.1-1
				c0-0.2,0.1-0.4,0.3-0.7c0.4-0.5,0.9-0.8,1.7-0.8c0.7,0,1.3,0.3,1.7,0.8c0.3,0.4,0.4,1,0.4,1.7v16l15.9-17.3
				c0.7-0.8,1.3-1.1,1.8-1.1c0.5,0,1,0.1,1.4,0.4c0.4,0.3,0.6,0.7,0.6,1.3c0,0.5-0.3,1-0.8,1.6l-8.6,9.4l10.8,17.1
				c0.4,0.6,0.6,1.2,0.6,1.7c0,0.6-0.4,1-1.1,1.4C222.3,45.4,221.9,45.4,221.5,45.4z"/>
		</g>
		<g>
			<path class="st0" d="M235.1,45.3c-0.9,0-1.6-0.2-1.9-0.5c-0.4-0.3-0.6-0.9-0.6-1.7V14.5c0-0.8,0.2-1.4,0.6-1.7
				c0.4-0.3,1-0.5,1.9-0.5H253c0.7,0,1.2,0.1,1.7,0.3c0.5,0.3,0.8,0.8,0.8,1.4c0,0.6-0.3,1.1-0.8,1.4c-0.5,0.2-1,0.3-1.7,0.3h-16.2
				V27h13.4c0.7,0,1.3,0.1,1.7,0.3c0.5,0.3,0.8,0.8,0.8,1.4c0,0.6-0.3,1.1-0.8,1.4c-0.4,0.2-1,0.3-1.7,0.3h-13.4v11.6H253
				c0.7,0,1.2,0.1,1.7,0.3c0.5,0.3,0.8,0.8,0.8,1.4c0,0.6-0.3,1.1-0.8,1.4c-0.5,0.2-1,0.3-1.7,0.3H235.1z"/>
		</g>
		<g>
			<path class="st0" d="M288,45.4c-0.5,0-0.9-0.1-1.2-0.4c-0.3-0.3-0.6-0.6-0.9-1.1l-8.3-13.2h-8.5V43c0,0.8-0.1,1.3-0.4,1.7
				c-0.3,0.5-0.9,0.8-1.7,0.8c-0.8,0-1.4-0.3-1.7-0.8c-0.2-0.4-0.4-0.9-0.4-1.7V14.5c0-0.8,0.2-1.4,0.6-1.7c0.4-0.3,1-0.5,1.9-0.5
				H279c3.2,0,5.8,0.8,7.9,2.5c2,1.7,3,3.9,3,6.7c0,2.4-0.7,4.3-2.2,5.9c-1.4,1.5-3.3,2.5-5.6,3l7.4,11.7c0.4,0.6,0.6,1.1,0.6,1.7
				c0,0.6-0.3,1.1-1,1.4C288.6,45.4,288.3,45.4,288,45.4z M278.6,27.4c2.2,0,3.9-0.5,5.2-1.5c1.3-1,1.9-2.5,1.9-4.4
				s-0.6-3.4-1.9-4.4c-1.3-1-3-1.5-5.2-1.5h-9.5v11.8H278.6z"/>
		</g>
	</g>
</g>
</svg>
