<?xml version="1.0" encoding="utf-8"?>
<!-- Generator: Adobe Illustrator 22.1.0, SVG Export Plug-In . SVG Version: 6.00 Build 0)  -->
<svg version="1.1" id="Layer_1" xmlns="http://www.w3.org/2000/svg" xmlns:xlink="http://www.w3.org/1999/xlink" x="0px" y="0px"
	 viewBox="0 0 290 56.6" xml:space="preserve">
<style type="text/css">
	.st0{fill:#fff;}
</style>
<title>Home</title>
<g id="logo-maker_1_" transform="translate(65.000000, 63.000000)">
	<g>
		<g id="Path-3-Copy-4-_x2B_-Path-3-Copy-5-Copy_3_" transform="translate(0.492537, 0.000000)">
			<g id="Shape_6_">
				<path class="st0" d="M-28.2-6.4c-1.9,0-3.3-1.4-3.3-3.2v-25.3l-27.3-18.8v44.1c0,1.8-1.5,3.2-3.3,3.2s-3.3-1.4-3.3-3.2v-50.3
					c0-1.8,1.5-3.2,3.3-3.2c0.7,0,1.4,0.2,1.9,0.6l33.9,23.5c0.9,0.6,1.4,1.5,1.4,2.6v26.9C-24.9-7.8-26.4-6.4-28.2-6.4z"/>
			</g>
			<g id="Shape_5_">
				<path class="st0" d="M-14.3-6.4c-1.9,0-3.3-1.4-3.3-3.2v-26.8c0-1,0.6-2,1.4-2.6l33.9-23.4c0.6-0.4,1.2-0.6,1.9-0.6
					c1.6,0,3.3,1.2,3.3,3.2v50.3c0,1.8-1.5,3.2-3.3,3.2s-3.3-1.4-3.3-3.2v-44.1L-11-34.9v25.3C-11-7.8-12.5-6.4-14.3-6.4z"/>
			</g>
		</g>
	</g>
</g>
</svg>
